<svg width="240" height="50" viewBox="0 0 240 50" fill="none" xmlns="http://www.w3.org/2000/svg">
<path d="M109.031 33.5596C107.044 32.593 105.499 31.1822 104.394 29.3267C103.289 27.4717 102.737 25.2437 102.737 22.644C102.737 20.0665 103.306 17.8558 104.444 16.0112C105.582 14.167 107.139 12.7729 109.114 11.8282C111.089 10.8839 113.315 10.4116 115.793 10.4116C118.158 10.4116 120.624 10.8673 123.191 11.7782L123.024 14.1446C122.577 13.9003 121.93 13.4895 121.082 12.9114C119.988 12.2229 119.135 11.7229 118.521 11.4115C117.907 11.1006 117.287 10.9448 116.663 10.9448C114.52 10.9448 112.651 11.4172 111.056 12.3614C109.46 13.306 108.232 14.656 107.373 16.4111C106.514 18.1666 106.085 20.244 106.085 22.6438C106.085 24.8438 106.564 26.8494 107.524 28.66C108.483 30.4714 109.8 31.8932 111.474 32.9263C113.148 33.9596 115.023 34.4762 117.098 34.4762C117.656 34.4762 118.242 34.3153 118.856 33.993C119.469 33.6712 120.212 33.2098 121.082 32.6099C121.93 32.0323 122.555 31.6323 122.957 31.41L123.191 33.8431C120.58 34.6206 118.147 35.0097 115.893 35.0097C113.304 35.0097 111.016 34.5264 109.03 33.5598L109.031 33.5596Z" fill="#FEFEFE"/>
<path d="M128.482 33.3936C127.344 32.3161 126.775 30.8997 126.775 29.144C126.775 26.4999 127.996 24.4 130.44 22.8445C132.884 21.2895 136.126 20.0447 140.165 19.1116C140.165 17.7783 139.841 16.7676 139.195 16.0784C138.547 15.3899 137.666 15.0451 136.55 15.0451C135.345 15.0451 134.084 15.4066 132.767 16.1284C131.45 16.8507 130.267 17.8115 129.218 19.0115L128.549 16.445C129.754 15.8898 131.048 15.4507 132.432 15.1284C133.816 14.8066 135.155 14.645 136.45 14.645C138.569 14.645 140.277 15.1174 141.571 16.0616C142.865 17.0063 143.513 18.5114 143.513 20.5779V34.5101H140.165V31.5437C139.183 32.6104 138.067 33.4551 136.818 34.0768C135.568 34.6988 134.329 35.0101 133.102 35.0101C131.16 35.0101 129.62 34.4716 128.482 33.3935L128.482 33.3936ZM137.437 33.127C138.497 32.5827 139.406 31.8994 140.165 31.0772V19.5781C136.572 20.3561 134 21.5003 132.449 23.0112C130.898 24.5226 130.122 26.4001 130.122 28.6441C130.122 30.3555 130.524 31.6662 131.328 32.5771C132.131 33.4886 133.157 33.9437 134.407 33.9437C135.367 33.9437 136.377 33.6718 137.437 33.1272V33.127Z" fill="#FEFEFE"/>
<path d="M164.755 15.9111C165.614 16.7333 166.044 17.9442 166.044 19.5441V34.5096H162.696V19.4441C162.696 18.2224 162.462 17.3058 161.993 16.6943C161.524 16.0834 160.888 15.7777 160.085 15.7777C159.282 15.7777 158.394 16.0557 157.424 16.6111C156.453 17.1667 155.493 17.9557 154.545 18.9775C153.596 19.9998 152.765 21.1887 152.051 22.5438V34.5094H148.703V15.2444H152.051V21.7105C153.39 19.3997 154.918 17.6499 156.637 16.4608C158.355 15.2724 160.007 14.6777 161.592 14.6777C162.841 14.6777 163.896 15.0892 164.755 15.9109L164.755 15.9111Z" fill="#FEFEFE"/>
<path d="M175.131 34.393C174.115 33.8931 173.295 33.1654 172.671 32.21C172.046 31.2548 171.733 30.1324 171.733 28.8435V15.7111H169.725V15.2444H172.202C173.005 14.356 173.608 13.2727 174.01 11.9947C174.411 10.7172 174.612 9.31153 174.612 7.77832H175.048L175.081 15.2444H180.203V15.7111H175.081V31.0431C175.081 32.2212 175.349 33.1321 175.884 33.7763C176.42 34.421 177.09 34.7429 177.893 34.7429C178.83 34.7429 179.784 34.2986 180.755 33.4097C181.726 32.5213 182.546 31.2989 183.216 29.7433L184.153 31.7766C183.551 32.888 182.73 33.7264 181.693 34.2931C180.655 34.8597 179.544 35.143 178.362 35.143C177.224 35.143 176.147 34.8931 175.131 34.393H175.131Z" fill="#FEFEFE"/>
<path d="M188.309 33.3931C187.171 32.3156 186.602 30.8992 186.602 29.1435C186.602 26.4994 187.823 24.3995 190.267 22.8441C192.711 21.289 195.952 20.0442 199.992 19.1111C199.992 17.7778 199.668 16.7671 199.021 16.0779C198.374 15.3894 197.492 15.0447 196.377 15.0447C195.172 15.0447 193.91 15.4061 192.594 16.1279C191.277 16.8502 190.094 17.8111 189.045 19.011L188.376 16.4445C189.581 15.8893 190.875 15.4502 192.259 15.1279C193.643 14.8061 194.982 14.6445 196.276 14.6445C198.396 14.6445 200.104 15.1169 201.398 16.0611C202.692 17.0058 203.34 18.5109 203.34 20.5774V34.5097H199.992V31.5432C199.01 32.6099 197.894 33.4546 196.645 34.0763C195.394 34.6983 194.156 35.0096 192.929 35.0096C190.987 35.0096 189.447 34.4711 188.309 33.393L188.309 33.3931ZM197.264 33.1265C198.324 32.5822 199.233 31.8989 199.992 31.0767V19.5776C196.399 20.3556 193.827 21.4998 192.276 23.0107C190.724 24.5221 189.949 26.3996 189.949 28.6436C189.949 30.355 190.351 31.6658 191.154 32.5766C191.958 33.4881 192.984 33.9432 194.234 33.9432C195.193 33.9432 196.204 33.6713 197.264 33.1267V33.1265Z" fill="#FEFEFE"/>
<path d="M208.521 34.5095V15.2444H211.869V24.8769H211.903C212.661 21.7662 213.766 19.3274 215.217 17.5609C216.667 15.7943 218.319 14.9111 220.171 14.9111C220.796 14.9111 221.432 15.0225 222.08 15.2444L221.611 17.5776C220.763 17.1558 219.926 16.9443 219.1 16.9443C217.448 16.9443 216.009 17.7557 214.782 19.3775C213.554 20.9997 212.583 23.2771 211.869 26.2103V34.5097H208.521V34.5095Z" fill="#FEFEFE"/>
<path d="M224.493 33.3936C223.355 32.3161 222.786 30.8997 222.786 29.144C222.786 26.4999 224.008 24.4 226.451 22.8445C228.895 21.2895 232.137 20.0447 236.177 19.1116C236.177 17.7783 235.853 16.7676 235.206 16.0784C234.558 15.3899 233.677 15.0451 232.561 15.0451C231.356 15.0451 230.095 15.4066 228.778 16.1284C227.461 16.8507 226.279 17.8115 225.23 19.0115L224.56 16.445C225.765 15.8898 227.059 15.4507 228.444 15.1284C229.827 14.8066 231.166 14.645 232.461 14.645C234.581 14.645 236.288 15.1174 237.583 16.0616C238.877 17.0063 239.524 18.5114 239.524 20.5779V34.5101H236.177V31.5437C235.194 32.6104 234.079 33.4551 232.829 34.0768C231.579 34.6988 230.34 35.0101 229.113 35.0101C227.171 35.0101 225.631 34.4716 224.493 33.3935L224.493 33.3936ZM233.448 33.127C234.508 32.5827 235.418 31.8994 236.177 31.0772V19.5781C232.583 20.3561 230.011 21.5003 228.46 23.0112C226.909 24.5226 226.134 26.4001 226.134 28.6441C226.134 30.3555 226.535 31.6662 227.339 32.5771C228.142 33.4886 229.168 33.9437 230.418 33.9437C231.378 33.9437 232.388 33.6718 233.448 33.1272V33.127Z" fill="#FEFEFE"/>
<g opacity="0.7">
<path opacity="0.67" d="M1 47.4452V17.7559C1 12.9487 5.1389 9.96198 8.41089 12.4121C33.5941 31.2689 55.8539 43.6774 85.0435 47.4362L1 47.4452Z" fill="#FEFEFE"/>
<g opacity="0.86">
<path d="M43.0265 21.0216C48.521 21.0216 52.9751 16.5396 52.9751 11.0108C52.9751 5.48198 48.521 1 43.0265 1C37.532 1 33.0779 5.48198 33.0779 11.0108C33.0779 16.5396 37.532 21.0216 43.0265 21.0216Z" fill="#FEFEFE"/>
</g>
<path opacity="0.87" d="M85.0424 47.4439L85.0435 17.757C85.0437 12.9503 80.9049 9.96359 77.6329 12.4134C52.4492 31.2677 30.1894 43.6743 1 47.4318L85.0424 47.444" fill="#FEFEFE"/>
</g>
<path d="M239.178 43.1092C239.139 43.0701 239.066 43.0171 238.96 42.9501C238.859 42.8831 238.734 42.8189 238.583 42.7575C238.438 42.6905 238.279 42.6347 238.106 42.59C237.933 42.5453 237.757 42.523 237.578 42.523C237.26 42.523 237.023 42.5816 236.866 42.6989C236.71 42.8161 236.632 42.9808 236.632 43.1929C236.632 43.3158 236.66 43.419 236.716 43.5028C236.777 43.5809 236.864 43.6507 236.975 43.7121C237.087 43.7735 237.226 43.8294 237.394 43.8796C237.567 43.9298 237.765 43.9829 237.988 44.0387C238.279 44.1169 238.541 44.2006 238.776 44.2899C239.016 44.3792 239.217 44.4909 239.379 44.6249C239.546 44.7589 239.674 44.9208 239.764 45.1106C239.853 45.2948 239.898 45.5237 239.898 45.7972C239.898 46.1154 239.836 46.389 239.714 46.6179C239.596 46.8412 239.434 47.0226 239.228 47.1622C239.027 47.3018 238.792 47.405 238.524 47.472C238.262 47.5334 237.986 47.5641 237.695 47.5641C237.249 47.5641 236.808 47.4971 236.372 47.3632C235.937 47.2292 235.546 47.0394 235.2 46.7937L235.711 45.7972C235.761 45.8475 235.85 45.9145 235.979 45.9982C236.113 46.0764 236.269 46.1573 236.448 46.2411C236.626 46.3192 236.825 46.3862 237.042 46.442C237.26 46.4979 237.483 46.5258 237.712 46.5258C238.349 46.5258 238.667 46.322 238.667 45.9145C238.667 45.7861 238.63 45.6772 238.558 45.5879C238.485 45.4986 238.382 45.4204 238.248 45.3534C238.114 45.2864 237.952 45.225 237.762 45.1692C237.573 45.1134 237.36 45.052 237.126 44.985C236.841 44.9068 236.593 44.8231 236.381 44.7337C236.174 44.6388 236.001 44.53 235.861 44.4072C235.722 44.2788 235.616 44.1336 235.543 43.9717C235.476 43.8042 235.443 43.606 235.443 43.3772C235.443 43.0757 235.499 42.8077 235.61 42.5733C235.722 42.3388 235.875 42.1434 236.071 41.9871C236.272 41.8308 236.503 41.7135 236.766 41.6354C237.028 41.5516 237.31 41.5098 237.612 41.5098C238.03 41.5098 238.416 41.5768 238.767 41.7107C239.119 41.8391 239.426 41.9927 239.688 42.1713L239.178 43.1092Z" fill="#FEFEFE"/>
<path d="M228.4 47.4973V41.5518H231.029C231.303 41.5518 231.554 41.6104 231.783 41.7276C232.017 41.8393 232.218 41.99 232.386 42.1798C232.553 42.364 232.685 42.5762 232.779 42.8162C232.874 43.0507 232.922 43.288 232.922 43.528C232.922 43.9132 232.824 44.2649 232.629 44.5831C232.439 44.8958 232.179 45.1219 231.85 45.2614L233.207 47.4973H231.909L230.694 45.5043H229.556V47.4973H228.4ZM229.556 44.491H231.004C231.11 44.491 231.208 44.4659 231.297 44.4157C231.392 44.3654 231.473 44.2984 231.54 44.2147C231.607 44.1254 231.66 44.0221 231.699 43.9048C231.738 43.7876 231.758 43.662 231.758 43.528C231.758 43.3884 231.736 43.26 231.691 43.1428C231.646 43.0256 231.585 42.9251 231.507 42.8413C231.434 42.752 231.348 42.685 231.247 42.6404C231.152 42.5901 231.054 42.565 230.954 42.565H229.556V44.491Z" fill="#FEFEFE"/>
<path d="M222.897 47.539C222.462 47.539 222.066 47.4553 221.708 47.2878C221.357 47.1147 221.052 46.8886 220.796 46.6095C220.544 46.3248 220.349 46.001 220.209 45.6381C220.07 45.2753 220 44.904 220 44.5244C220 44.128 220.073 43.7484 220.218 43.3855C220.368 43.0227 220.572 42.7017 220.829 42.4225C221.091 42.1434 221.401 41.9229 221.759 41.761C222.116 41.5935 222.504 41.5098 222.923 41.5098C223.352 41.5098 223.743 41.5991 224.095 41.7777C224.452 41.9508 224.756 42.1797 225.008 42.4644C225.259 42.7491 225.454 43.0729 225.594 43.4358C225.733 43.7986 225.803 44.1671 225.803 44.5411C225.803 44.9375 225.731 45.3171 225.585 45.68C225.44 46.0373 225.239 46.3555 224.983 46.6346C224.726 46.9082 224.419 47.1287 224.061 47.2962C223.704 47.4581 223.316 47.539 222.897 47.539ZM221.172 44.5244C221.172 44.7812 221.211 45.0296 221.29 45.2697C221.368 45.5097 221.479 45.7219 221.625 45.9061C221.775 46.0903 221.957 46.2383 222.169 46.3499C222.387 46.4616 222.632 46.5174 222.906 46.5174C223.185 46.5174 223.431 46.4616 223.643 46.3499C223.86 46.2327 224.042 46.0792 224.187 45.8893C224.338 45.6995 224.449 45.4874 224.522 45.2529C224.6 45.0129 224.639 44.77 224.639 44.5244C224.639 44.2676 224.597 44.0192 224.514 43.7791C224.435 43.5391 224.321 43.3269 224.17 43.1427C224.025 42.9585 223.844 42.8133 223.626 42.7072C223.414 42.5956 223.174 42.5398 222.906 42.5398C222.627 42.5398 222.378 42.5984 222.16 42.7156C221.943 42.8273 221.761 42.978 221.616 43.1678C221.471 43.352 221.359 43.5642 221.281 43.8042C221.209 44.0387 221.172 44.2788 221.172 44.5244Z" fill="#FEFEFE"/>
<path d="M217.077 43.1092C217.038 43.0701 216.966 43.0171 216.86 42.9501C216.759 42.8831 216.634 42.8189 216.483 42.7575C216.338 42.6905 216.179 42.6347 216.006 42.59C215.833 42.5453 215.657 42.523 215.478 42.523C215.16 42.523 214.923 42.5816 214.766 42.6989C214.61 42.8161 214.532 42.9808 214.532 43.1929C214.532 43.3158 214.56 43.419 214.616 43.5028C214.677 43.5809 214.763 43.6507 214.875 43.7121C214.987 43.7735 215.126 43.8294 215.294 43.8796C215.467 43.9298 215.665 43.9829 215.888 44.0387C216.179 44.1169 216.441 44.2006 216.676 44.2899C216.916 44.3792 217.117 44.4909 217.278 44.6249C217.446 44.7589 217.574 44.9208 217.664 45.1106C217.753 45.2948 217.798 45.5237 217.798 45.7972C217.798 46.1154 217.736 46.389 217.613 46.6179C217.496 46.8412 217.334 47.0226 217.128 47.1622C216.927 47.3018 216.692 47.405 216.424 47.472C216.162 47.5334 215.886 47.5641 215.595 47.5641C215.149 47.5641 214.708 47.4971 214.272 47.3632C213.837 47.2292 213.446 47.0394 213.1 46.7937L213.611 45.7972C213.661 45.8475 213.75 45.9145 213.879 45.9982C214.013 46.0764 214.169 46.1573 214.348 46.2411C214.526 46.3192 214.724 46.3862 214.942 46.442C215.16 46.4979 215.383 46.5258 215.612 46.5258C216.248 46.5258 216.567 46.322 216.567 45.9145C216.567 45.7861 216.53 45.6772 216.458 45.5879C216.385 45.4986 216.282 45.4204 216.148 45.3534C216.014 45.2864 215.852 45.225 215.662 45.1692C215.472 45.1134 215.26 45.052 215.026 44.985C214.741 44.9068 214.493 44.8231 214.281 44.7337C214.074 44.6388 213.901 44.53 213.761 44.4072C213.622 44.2788 213.516 44.1336 213.443 43.9717C213.376 43.8042 213.343 43.606 213.343 43.3772C213.343 43.0757 213.399 42.8077 213.51 42.5733C213.622 42.3388 213.775 42.1434 213.971 41.9871C214.172 41.8308 214.403 41.7135 214.666 41.6354C214.928 41.5516 215.21 41.5098 215.512 41.5098C215.93 41.5098 216.315 41.5768 216.667 41.7107C217.019 41.8391 217.326 41.9927 217.588 42.1713L217.077 43.1092Z" fill="#FEFEFE"/>
<path d="M209.5 47.4973V41.5518H210.656V47.4973H209.5Z" fill="#FEFEFE"/>
<path d="M202.774 41.5518L204.382 46.0486L205.973 41.5518H207.187L204.868 47.4973H203.896L201.56 41.5518H202.774Z" fill="#FEFEFE"/>
<path d="M194.7 47.4973V41.5518H196.86C197.346 41.5518 197.77 41.6299 198.133 41.7862C198.502 41.9425 198.809 42.1547 199.054 42.4227C199.3 42.6906 199.484 43.006 199.607 43.3689C199.73 43.7262 199.791 44.1086 199.791 44.5161C199.791 44.9683 199.722 45.3787 199.582 45.7471C199.448 46.11 199.253 46.4226 198.996 46.685C198.739 46.9418 198.429 47.1428 198.066 47.2879C197.709 47.4275 197.307 47.4973 196.86 47.4973H194.7ZM198.627 44.5161C198.627 44.2314 198.588 43.969 198.51 43.729C198.432 43.4889 198.318 43.2824 198.167 43.1093C198.016 42.9363 197.829 42.8023 197.606 42.7074C197.388 42.6125 197.14 42.565 196.86 42.565H195.856V46.484H196.86C197.145 46.484 197.396 46.4338 197.614 46.3333C197.837 46.2328 198.022 46.096 198.167 45.923C198.318 45.7443 198.432 45.535 198.51 45.2949C198.588 45.0549 198.627 44.7953 198.627 44.5161Z" fill="#FEFEFE"/>
<path d="M189.089 41.5518H190.111L192.372 47.4973H191.183L190.63 46.0151H188.553L188.009 47.4973H186.82L189.089 41.5518ZM190.421 45.2028L189.6 42.8665L188.746 45.2028H190.421Z" fill="#FEFEFE"/>
<path d="M180.708 43.1092C180.669 43.0701 180.596 43.0171 180.49 42.9501C180.389 42.8831 180.264 42.8189 180.113 42.7575C179.968 42.6905 179.809 42.6347 179.636 42.59C179.463 42.5453 179.287 42.523 179.108 42.523C178.79 42.523 178.553 42.5816 178.396 42.6989C178.24 42.8161 178.162 42.9808 178.162 43.1929C178.162 43.3158 178.19 43.419 178.246 43.5028C178.307 43.5809 178.394 43.6507 178.505 43.7121C178.617 43.7735 178.756 43.8294 178.924 43.8796C179.097 43.9298 179.295 43.9829 179.519 44.0387C179.809 44.1169 180.071 44.2006 180.306 44.2899C180.546 44.3792 180.747 44.4909 180.909 44.6249C181.076 44.7589 181.204 44.9208 181.294 45.1106C181.383 45.2948 181.428 45.5237 181.428 45.7972C181.428 46.1154 181.366 46.389 181.244 46.6179C181.126 46.8412 180.964 47.0226 180.758 47.1622C180.557 47.3018 180.322 47.405 180.054 47.472C179.792 47.5334 179.516 47.5641 179.225 47.5641C178.779 47.5641 178.338 47.4971 177.902 47.3632C177.467 47.2292 177.076 47.0394 176.73 46.7937L177.241 45.7972C177.291 45.8475 177.38 45.9145 177.509 45.9982C177.643 46.0764 177.799 46.1573 177.978 46.2411C178.156 46.3192 178.355 46.3862 178.572 46.442C178.79 46.4979 179.013 46.5258 179.242 46.5258C179.879 46.5258 180.197 46.322 180.197 45.9145C180.197 45.7861 180.161 45.6772 180.088 45.5879C180.015 45.4986 179.912 45.4204 179.778 45.3534C179.644 45.2864 179.482 45.225 179.292 45.1692C179.103 45.1134 178.89 45.052 178.656 44.985C178.371 44.9068 178.123 44.8231 177.911 44.7337C177.704 44.6388 177.531 44.53 177.392 44.4072C177.252 44.2788 177.146 44.1336 177.073 43.9717C177.006 43.8042 176.973 43.606 176.973 43.3772C176.973 43.0757 177.029 42.8077 177.14 42.5733C177.252 42.3388 177.405 42.1434 177.601 41.9871C177.802 41.8308 178.034 41.7135 178.296 41.6354C178.558 41.5516 178.84 41.5098 179.142 41.5098C179.56 41.5098 179.946 41.5768 180.297 41.7107C180.649 41.8391 180.956 41.9927 181.218 42.1713L180.708 43.1092Z" fill="#FEFEFE"/>
<path d="M173.898 43.1092C173.858 43.0701 173.786 43.0171 173.68 42.9501C173.579 42.8831 173.454 42.8189 173.303 42.7575C173.158 42.6905 172.999 42.6347 172.826 42.59C172.653 42.5453 172.477 42.523 172.298 42.523C171.98 42.523 171.743 42.5816 171.586 42.6989C171.43 42.8161 171.352 42.9808 171.352 43.1929C171.352 43.3158 171.38 43.419 171.436 43.5028C171.497 43.5809 171.584 43.6507 171.695 43.7121C171.807 43.7735 171.946 43.8294 172.114 43.8796C172.287 43.9298 172.485 43.9829 172.708 44.0387C172.999 44.1169 173.261 44.2006 173.496 44.2899C173.736 44.3792 173.937 44.4909 174.099 44.6249C174.266 44.7589 174.394 44.9208 174.484 45.1106C174.573 45.2948 174.618 45.5237 174.618 45.7972C174.618 46.1154 174.556 46.389 174.433 46.6179C174.316 46.8412 174.154 47.0226 173.948 47.1622C173.747 47.3018 173.512 47.405 173.244 47.472C172.982 47.5334 172.706 47.5641 172.415 47.5641C171.969 47.5641 171.528 47.4971 171.092 47.3632C170.657 47.2292 170.266 47.0394 169.92 46.7937L170.431 45.7972C170.481 45.8475 170.57 45.9145 170.699 45.9982C170.833 46.0764 170.989 46.1573 171.168 46.2411C171.346 46.3192 171.544 46.3862 171.762 46.442C171.98 46.4979 172.203 46.5258 172.432 46.5258C173.069 46.5258 173.387 46.322 173.387 45.9145C173.387 45.7861 173.35 45.6772 173.278 45.5879C173.205 45.4986 173.102 45.4204 172.968 45.3534C172.834 45.2864 172.672 45.225 172.482 45.1692C172.293 45.1134 172.08 45.052 171.846 44.985C171.561 44.9068 171.313 44.8231 171.101 44.7337C170.894 44.6388 170.721 44.53 170.581 44.4072C170.442 44.2788 170.336 44.1336 170.263 43.9717C170.196 43.8042 170.163 43.606 170.163 43.3772C170.163 43.0757 170.219 42.8077 170.33 42.5733C170.442 42.3388 170.595 42.1434 170.791 41.9871C170.992 41.8308 171.223 41.7135 171.486 41.6354C171.748 41.5516 172.03 41.5098 172.332 41.5098C172.75 41.5098 173.136 41.5768 173.487 41.7107C173.839 41.8391 174.146 41.9927 174.408 42.1713L173.898 43.1092Z" fill="#FEFEFE"/>
<path d="M167.898 46.484V47.4973H163.77V41.5518H167.823V42.565H164.926V43.997H167.429V44.9348H164.926V46.484H167.898Z" fill="#FEFEFE"/>
<path d="M156.866 43.6871V47.4973H155.71V41.5518H156.606L159.704 45.454V41.5601H160.86V47.4973H159.922L156.866 43.6871Z" fill="#FEFEFE"/>
<path d="M151.64 47.4973V41.5518H152.795V47.4973H151.64Z" fill="#FEFEFE"/>
<path d="M148.368 43.1092C148.328 43.0701 148.256 43.0171 148.15 42.9501C148.049 42.8831 147.924 42.8189 147.773 42.7575C147.628 42.6905 147.469 42.6347 147.296 42.59C147.123 42.5453 146.947 42.523 146.768 42.523C146.45 42.523 146.213 42.5816 146.056 42.6989C145.9 42.8161 145.822 42.9808 145.822 43.1929C145.822 43.3158 145.85 43.419 145.906 43.5028C145.967 43.5809 146.054 43.6507 146.165 43.7121C146.277 43.7735 146.416 43.8294 146.584 43.8796C146.757 43.9298 146.955 43.9829 147.178 44.0387C147.469 44.1169 147.731 44.2006 147.966 44.2899C148.206 44.3792 148.407 44.4909 148.568 44.6249C148.736 44.7589 148.864 44.9208 148.954 45.1106C149.043 45.2948 149.088 45.5237 149.088 45.7972C149.088 46.1154 149.026 46.389 148.903 46.6179C148.786 46.8412 148.624 47.0226 148.418 47.1622C148.217 47.3018 147.982 47.405 147.714 47.472C147.452 47.5334 147.176 47.5641 146.885 47.5641C146.439 47.5641 145.998 47.4971 145.562 47.3632C145.127 47.2292 144.736 47.0394 144.39 46.7937L144.901 45.7972C144.951 45.8475 145.04 45.9145 145.169 45.9982C145.303 46.0764 145.459 46.1573 145.638 46.2411C145.816 46.3192 146.014 46.3862 146.232 46.442C146.45 46.4979 146.673 46.5258 146.902 46.5258C147.539 46.5258 147.857 46.322 147.857 45.9145C147.857 45.7861 147.82 45.6772 147.748 45.5879C147.675 45.4986 147.572 45.4204 147.438 45.3534C147.304 45.2864 147.142 45.225 146.952 45.1692C146.763 45.1134 146.55 45.052 146.316 44.985C146.031 44.9068 145.783 44.8231 145.571 44.7337C145.364 44.6388 145.191 44.53 145.051 44.4072C144.912 44.2788 144.806 44.1336 144.733 43.9717C144.666 43.8042 144.633 43.606 144.633 43.3772C144.633 43.0757 144.689 42.8077 144.8 42.5733C144.912 42.3388 145.065 42.1434 145.261 41.9871C145.462 41.8308 145.693 41.7135 145.956 41.6354C146.218 41.5516 146.5 41.5098 146.802 41.5098C147.22 41.5098 147.605 41.5768 147.957 41.7107C148.309 41.8391 148.616 41.9927 148.878 42.1713L148.368 43.1092Z" fill="#FEFEFE"/>
<path d="M139.386 46.5175C139.66 46.5175 139.888 46.4617 140.073 46.35C140.262 46.2384 140.413 46.0932 140.525 45.9146C140.642 45.7359 140.723 45.5322 140.768 45.3033C140.818 45.0688 140.843 44.8288 140.843 44.5831V41.5518H141.99V44.5831C141.99 44.9907 141.94 45.3731 141.84 45.7304C141.745 46.0877 141.591 46.4003 141.379 46.6682C141.172 46.9362 140.904 47.1484 140.575 47.3047C140.246 47.461 139.852 47.5391 139.394 47.5391C138.92 47.5391 138.515 47.4582 138.18 47.2963C137.851 47.1288 137.583 46.9111 137.376 46.6431C137.17 46.3696 137.019 46.0542 136.924 45.6969C136.835 45.3396 136.79 44.9683 136.79 44.5831V41.5518H137.946V44.5831C137.946 44.8344 137.968 45.0772 138.013 45.3117C138.063 45.5406 138.144 45.7443 138.255 45.923C138.373 46.1016 138.523 46.2468 138.708 46.3584C138.892 46.4645 139.118 46.5175 139.386 46.5175Z" fill="#FEFEFE"/>
<path d="M134.3 45.9648C134.3 46.2161 134.25 46.4366 134.149 46.6264C134.049 46.8162 133.909 46.9753 133.73 47.1037C133.557 47.2321 133.354 47.3298 133.119 47.3968C132.89 47.4638 132.645 47.4973 132.382 47.4973H129.51V41.5518H132.692C132.899 41.5518 133.086 41.5964 133.253 41.6857C133.421 41.7751 133.563 41.8923 133.68 42.0374C133.797 42.177 133.887 42.3389 133.948 42.5231C134.015 42.7018 134.049 42.8832 134.049 43.0674C134.049 43.3577 133.976 43.6313 133.831 43.8881C133.686 44.1393 133.474 44.3263 133.195 44.4491C133.535 44.5496 133.803 44.7311 133.998 44.9935C134.199 45.2503 134.3 45.5741 134.3 45.9648ZM133.136 45.7471C133.136 45.641 133.116 45.5406 133.077 45.4457C133.044 45.3452 132.996 45.2586 132.935 45.1861C132.874 45.1135 132.801 45.0577 132.717 45.0186C132.633 44.9739 132.541 44.9516 132.441 44.9516H130.666V46.5175H132.382C132.488 46.5175 132.586 46.498 132.675 46.4589C132.77 46.4198 132.851 46.3668 132.918 46.2998C132.985 46.2272 133.038 46.1435 133.077 46.0486C133.116 45.9537 133.136 45.8532 133.136 45.7471ZM130.666 42.5399V44.0388H132.206C132.402 44.0388 132.567 43.9718 132.7 43.8378C132.84 43.7039 132.91 43.5196 132.91 43.2852C132.91 43.0563 132.846 42.8748 132.717 42.7409C132.594 42.6069 132.441 42.5399 132.257 42.5399H130.666Z" fill="#FEFEFE"/>
<path d="M123.639 42.565H121.738V47.4973H120.591V42.565H118.69V41.5518H123.639V42.565Z" fill="#FEFEFE"/>
<path d="M116.618 46.484V47.4973H112.49V41.5518H116.543V42.565H113.646V43.997H116.149V44.9348H113.646V46.484H116.618Z" fill="#FEFEFE"/>
<path d="M105.6 47.4973V41.5518H108.121C108.394 41.5518 108.645 41.6104 108.874 41.7276C109.109 41.8393 109.31 41.99 109.477 42.1798C109.645 42.364 109.776 42.5762 109.871 42.8162C109.966 43.0507 110.013 43.288 110.013 43.528C110.013 43.7792 109.969 44.0249 109.879 44.2649C109.79 44.4994 109.664 44.7087 109.502 44.893C109.34 45.0772 109.145 45.2251 108.916 45.3368C108.687 45.4484 108.436 45.5043 108.163 45.5043H106.756V47.4973H105.6ZM106.756 44.491H108.096C108.308 44.491 108.484 44.4045 108.623 44.2314C108.768 44.0584 108.841 43.8239 108.841 43.528C108.841 43.3773 108.818 43.2433 108.774 43.1261C108.729 43.0032 108.671 42.9 108.598 42.8162C108.525 42.7325 108.439 42.6711 108.338 42.632C108.243 42.5873 108.146 42.565 108.045 42.565H106.756V44.491Z" fill="#FEFEFE"/>
</svg>
